<svg viewBox="0 0 260 253" fill="none" xmlns="http://www.w3.org/2000/svg">
<mask id="mask0_34_10099" style="mask-type:alpha" maskUnits="userSpaceOnUse" x="0" y="0" >
<path fill-rule="evenodd" clip-rule="evenodd" d="M242.932 3.33057C241.115 3.33057 239.643 4.80308 239.643 6.61951C239.643 8.43593 241.115 9.90845 242.932 9.90845C244.748 9.90845 246.221 8.43595 246.221 6.61951C246.221 4.80307 244.748 3.33057 242.932 3.33057ZM236.312 6.61951C236.312 2.96365 239.276 0 242.932 0C246.588 0 249.551 2.96366 249.551 6.61951C249.551 9.70363 247.442 12.2951 244.588 13.0303L244.568 16.1163C245.679 16.704 246.437 17.8722 246.437 19.2174C246.437 21.1534 244.868 22.7228 242.932 22.7228C241.622 22.7228 240.48 22.0048 239.879 20.941H227.941C227.62 21.5086 227.145 21.9777 226.573 22.2919L226.594 25.3776C229.436 26.1213 231.533 28.7067 231.533 31.7819C231.533 35.4378 228.569 38.4014 224.913 38.4014C221.257 38.4014 218.294 35.4378 218.294 31.7819C218.294 28.6958 220.406 26.103 223.263 25.3698L223.243 22.3135C222.653 21.9994 222.164 21.5217 221.835 20.941H209.881C209.568 21.4947 209.109 21.9548 208.555 22.2686L208.576 25.4289C211.384 26.1954 213.448 28.7643 213.448 31.8153C213.448 35.4711 210.484 38.4348 206.829 38.4348C203.173 38.4348 200.209 35.4711 200.209 31.8153C200.209 28.7052 202.354 26.0961 205.245 25.3864L205.225 22.3355C204.616 22.0219 204.112 21.5354 203.775 20.941H191.872C191.551 21.5075 191.077 21.9759 190.507 22.2901L190.531 25.4285C193.34 26.1946 195.404 28.7638 195.404 31.8153C195.404 35.4711 192.441 38.4348 188.785 38.4348C185.129 38.4348 182.165 35.4711 182.165 31.8153C182.165 28.7057 184.309 26.0969 187.2 25.3867L187.176 22.3152C186.565 21.9907 186.062 21.4908 185.733 20.8826H154.447H149.926H65.6L50.4664 35.4303V72.7729H47.1358V34.7212V34.012L47.647 33.5206L63.7753 18.0168L64.2588 17.5521H64.9294H149.926H154.447H185.733C186.326 16.4563 187.485 15.712 188.818 15.712C190.175 15.712 191.352 16.4828 191.935 17.6104H203.712C204.037 16.9813 204.547 16.4632 205.17 16.1281L205.194 13.0356C202.329 12.3077 200.209 9.71111 200.209 6.61951C200.209 2.96366 203.173 0 206.829 0C210.484 0 213.448 2.96365 213.448 6.61951C213.448 9.68916 211.359 12.2708 208.524 13.0198L208.501 16.1359C209.117 16.4712 209.622 16.9861 209.945 17.6104H221.772C222.095 16.9852 222.601 16.4696 223.219 16.1344L223.239 13.034C220.377 12.3039 218.26 9.70885 218.26 6.61951C218.26 2.96366 221.224 0 224.88 0C228.536 0 231.5 2.96365 231.5 6.61951C231.5 9.69145 229.407 12.2746 226.57 13.0215L226.549 16.1297C227.171 16.4649 227.68 16.9823 228.005 17.6104H239.815C240.134 16.9937 240.63 16.4838 241.237 16.1482L241.257 13.0253C238.412 12.2835 236.312 9.69672 236.312 6.61951ZM37.036 26.07C37.036 27.2004 36.5009 28.2058 35.6703 28.8469V44.001C36.5009 44.642 37.036 45.6474 37.036 46.7778C37.036 47.9082 36.5009 48.9137 35.6703 49.5547V72.7729H32.3397V50.0758C32.0734 49.9796 31.822 49.8521 31.5901 49.6976L21.582 59.6995V64.1582C24.4319 64.8965 26.5365 67.4857 26.5365 70.5665C26.5365 74.2224 23.5728 77.186 19.917 77.186C16.2611 77.186 13.2975 74.2224 13.2975 70.5665C13.2975 67.4859 15.4018 64.8968 18.2515 64.1583V59.0094V58.3193L18.7396 57.8315L30.0327 46.5454C30.1255 45.129 31.0594 43.9423 32.3397 43.4799V29.501L8.28171 52.3829L7.98352 119.966C10.985 120.595 13.239 123.257 13.239 126.445C13.239 130.101 10.2754 133.065 6.61951 133.065C2.96366 133.065 0 130.101 0 126.445C0 123.474 1.95704 120.961 4.65223 120.123L4.9543 51.6582L4.95744 50.9482L5.4719 50.4589L30.1471 26.9899C30.0676 26.6968 30.0251 26.3884 30.0251 26.07C30.0251 24.134 31.5946 22.5646 33.5306 22.5646C34.0406 22.5646 34.5251 22.6735 34.9623 22.8693L53.3927 5.4105L53.8744 4.95418H54.538H152.993C153.731 2.10445 156.321 0 159.401 0C163.057 0 166.021 2.96366 166.021 6.61951C166.021 10.2754 163.057 13.239 159.401 13.239C156.321 13.239 153.731 11.1345 152.993 8.28475H55.2015L36.9949 25.5316C37.0219 25.7071 37.036 25.8869 37.036 26.07ZM238.644 47.727C234.091 47.727 230.4 51.4176 230.4 55.9702C230.4 60.5228 234.091 64.2133 238.644 64.2133C243.196 64.2133 246.887 60.5228 246.887 55.9702C246.887 51.4176 243.196 47.727 238.644 47.727ZM125.122 57.7516L227.194 57.6701C228.016 63.2562 232.829 67.5439 238.644 67.5439C245.036 67.5439 250.217 62.3622 250.217 55.9702C250.217 49.5782 245.036 44.3965 238.644 44.3965C232.805 44.3965 227.976 48.7197 227.184 54.3395L124.471 54.4215L123.822 54.422L123.344 54.8616L113.919 63.5377L113.382 64.0315L113.381 64.7606L113.373 70.5641L116.703 70.5689L116.711 65.4944L125.122 57.7516ZM180.968 186.197L180.975 182.038L184.305 182.043L184.297 186.923L184.296 187.642L183.771 188.135L150.923 218.935H164.85C165.441 217.843 166.595 217.099 167.923 217.095L194.739 192.286L194.747 182.039L198.077 182.042L198.069 193.016L198.068 193.743L197.534 194.237L170.959 218.824C170.973 218.848 170.987 218.873 171 218.897L171.021 218.935H185.299L208.586 198.001L208.594 182.04L211.924 182.041L211.916 198.744L211.916 199.486L211.364 199.982L187.051 221.839L186.576 222.266H185.938H171.021C170.428 223.361 169.269 224.106 167.936 224.106C166.602 224.106 165.443 223.361 164.85 222.266H149.96C149.324 223.158 148.282 223.739 147.103 223.739C145.924 223.739 144.881 223.158 144.246 222.266H72.1287C71.5213 224.61 69.6614 226.45 67.3057 227.029L67.3293 230.1C68.4378 230.689 69.1927 231.856 69.1927 233.198C69.1927 235.134 67.6233 236.704 65.6873 236.704C64.3339 236.704 63.1596 235.937 62.5754 234.814H50.7974C50.4713 235.44 49.9613 235.956 49.3389 236.29L49.3188 239.38C52.1847 240.107 54.3048 242.704 54.3048 245.796C54.3048 249.452 51.3411 252.416 47.6853 252.416C44.0294 252.416 41.0658 249.452 41.0658 245.796C41.0658 242.727 43.1545 240.146 45.9881 239.396L46.0083 236.277C45.3967 235.943 44.8955 235.432 44.5736 234.814H32.7374C32.4136 235.436 31.9085 235.949 31.292 236.283L31.2685 239.382C34.1295 240.113 36.2448 242.707 36.2448 245.796C36.2448 249.452 33.2812 252.416 29.6253 252.416C25.9695 252.416 23.0058 249.452 23.0058 245.796C23.0058 242.723 25.0993 240.14 27.9378 239.394L27.9613 236.284C27.3438 235.95 26.8379 235.437 26.5136 234.814H14.6856C14.3676 235.425 13.8749 235.931 13.2737 236.265L13.25 239.391C16.0943 240.133 18.1934 242.719 18.1934 245.796C18.1934 249.452 15.2297 252.416 11.5739 252.416C7.91805 252.416 4.95439 249.452 4.95439 245.796C4.95439 242.712 7.06414 240.12 9.91935 239.385L9.94271 236.302C8.82817 235.715 8.06826 234.545 8.06826 233.198C8.06826 231.262 9.63769 229.693 11.5737 229.693C12.8866 229.693 14.0309 230.415 14.6315 231.483H26.5677C26.8882 230.913 27.3636 230.441 27.9368 230.126L27.9131 227.038C25.0703 226.295 22.9725 223.709 22.9725 220.634C22.9725 216.978 25.9361 214.014 29.592 214.014C33.2478 214.014 36.2115 216.978 36.2115 220.634C36.2115 223.719 34.1004 226.312 31.2438 227.045L31.2673 230.1C31.8615 230.416 32.3541 230.897 32.6833 231.483H44.6277C44.9405 230.927 45.4007 230.464 45.9555 230.149L45.9312 226.985C43.1266 226.216 41.0658 223.649 41.0658 220.6C41.0658 216.944 44.0294 213.981 47.6853 213.981C51.3411 213.981 54.3048 216.944 54.3048 220.6C54.3048 223.713 52.1567 226.323 49.2622 227.031L49.2856 230.078C49.8984 230.393 50.4064 230.884 50.7433 231.483H62.6295C62.9501 230.913 63.4255 230.441 63.9988 230.125L63.9747 226.987C61.1659 226.221 59.1009 223.652 59.1009 220.6C59.1009 216.944 62.0646 213.981 65.7205 213.981C68.8011 213.981 71.3903 216.085 72.1287 218.935H143.846C144.362 217.642 145.626 216.729 147.103 216.729C147.492 216.729 147.865 216.792 148.215 216.909L180.968 186.197ZM231.4 182.039L231.392 193.193L190.591 232.799H89.2996C87.2278 230.847 84.4364 229.651 81.3657 229.651C74.9737 229.651 69.792 234.833 69.792 241.225C69.792 247.617 74.9737 252.799 81.3657 252.799C84.557 252.799 87.4466 251.507 89.5403 249.418H198.885H199.575L200.063 248.93L249.056 199.921L249.543 199.433L249.543 198.744L249.551 182.041L246.221 182.04L246.213 198.053L198.195 246.087H91.8714C92.5569 244.609 92.9394 242.962 92.9394 241.225C92.9394 239.396 92.5153 237.667 91.7601 236.129H191.266H191.942L192.426 235.659L234.216 195.092L234.721 194.602L234.722 193.899L234.73 182.042L231.4 182.039ZM88.0226 246.087C89.02 244.724 89.6088 243.043 89.6088 241.225C89.6088 236.672 85.9183 232.982 81.3657 232.982C76.8131 232.982 73.1225 236.672 73.1225 241.225C73.1225 245.777 76.8131 249.468 81.3657 249.468C84.0924 249.468 86.5099 248.144 88.0105 246.104V246.087H88.0226ZM150.75 182.039L150.742 189.419L142.331 197.162L27.9828 197.244C27.1749 191.641 22.3543 187.336 16.5281 187.336C10.1361 187.336 4.95439 192.518 4.95439 198.91C4.95439 205.302 10.1361 210.484 16.5281 210.484C22.355 210.484 27.1762 206.178 27.9831 200.574L142.982 200.492L143.631 200.492L144.109 200.052L153.535 191.376L154.071 190.882L154.072 190.152L154.08 182.042L150.75 182.039ZM8.28496 198.91C8.28496 194.357 11.9755 190.667 16.5281 190.667C21.0807 190.667 24.7713 194.357 24.7713 198.91C24.7713 203.463 21.0807 207.153 16.5281 207.153C11.9755 207.153 8.28496 203.463 8.28496 198.91ZM126.778 87.2276C126.778 93.638 121.581 98.8346 115.171 98.8346C108.761 98.8346 103.564 93.638 103.564 87.2276C103.564 80.8172 108.761 75.6206 115.171 75.6206C121.581 75.6206 126.778 80.8172 126.778 87.2276ZM11.5739 242.507C9.75747 242.507 8.28496 243.98 8.28496 245.796C8.28496 247.613 9.75746 249.085 11.5739 249.085C13.3903 249.085 14.8628 247.613 14.8628 245.796C14.8628 243.98 13.3903 242.507 11.5739 242.507ZM26.3364 245.796C26.3364 243.98 27.8089 242.507 29.6253 242.507C31.4418 242.507 32.9143 243.98 32.9143 245.796C32.9143 247.613 31.4418 249.085 29.6253 249.085C27.8089 249.085 26.3364 247.613 26.3364 245.796ZM47.6853 242.507C45.8689 242.507 44.3964 243.98 44.3964 245.796C44.3964 247.613 45.8689 249.085 47.6853 249.085C49.5017 249.085 50.9742 247.613 50.9742 245.796C50.9742 243.98 49.5017 242.507 47.6853 242.507ZM26.303 220.634C26.303 218.817 27.7756 217.345 29.592 217.345C31.4084 217.345 32.8809 218.817 32.8809 220.634C32.8809 222.45 31.4084 223.923 29.592 223.923C27.7756 223.923 26.303 222.45 26.303 220.634ZM6.61951 123.156C4.80308 123.156 3.33057 124.629 3.33057 126.445C3.33057 128.262 4.80308 129.734 6.61951 129.734C8.43594 129.734 9.90845 128.262 9.90845 126.445C9.90845 124.629 8.43594 123.156 6.61951 123.156ZM47.6853 217.311C45.8689 217.311 44.3964 218.784 44.3964 220.6C44.3964 222.417 45.8689 223.889 47.6853 223.889C49.5017 223.889 50.9742 222.417 50.9742 220.6C50.9742 218.784 49.5017 217.311 47.6853 217.311ZM11.6154 213.981C7.95951 213.981 4.99586 216.944 4.99586 220.6C4.99586 224.256 7.95951 227.22 11.6154 227.22C15.2712 227.22 18.2349 224.256 18.2349 220.6C18.2349 216.944 15.2712 213.981 11.6154 213.981ZM65.7205 217.311C63.904 217.311 62.4315 218.784 62.4315 220.6C62.4315 222.417 63.904 223.889 65.7205 223.889C67.5369 223.889 69.0094 222.417 69.0094 220.6C69.0094 218.784 67.5369 217.311 65.7205 217.311ZM221.591 6.61951C221.591 4.80307 223.064 3.33057 224.88 3.33057C226.696 3.33057 228.169 4.80308 228.169 6.61951C228.169 8.43593 226.696 9.90845 224.88 9.90845C223.064 9.90845 221.591 8.43595 221.591 6.61951ZM206.829 3.33057C205.012 3.33057 203.54 4.80308 203.54 6.61951C203.54 8.43594 205.012 9.90845 206.829 9.90845C208.645 9.90845 210.118 8.43593 210.118 6.61951C210.118 4.80308 208.645 3.33057 206.829 3.33057ZM221.624 31.7819C221.624 29.9655 223.097 28.493 224.913 28.493C226.73 28.493 228.202 29.9655 228.202 31.7819C228.202 33.5984 226.73 35.0709 224.913 35.0709C223.097 35.0709 221.624 33.5984 221.624 31.7819ZM236.47 31.7819C236.47 28.1261 239.434 25.1624 243.09 25.1624C246.746 25.1624 249.71 28.1261 249.71 31.7819C249.71 35.4378 246.746 38.4014 243.09 38.4014C239.434 38.4014 236.47 35.4378 236.47 31.7819ZM206.829 28.5263C205.012 28.5263 203.54 29.9988 203.54 31.8153C203.54 33.6317 205.012 35.1042 206.829 35.1042C208.645 35.1042 210.118 33.6317 210.118 31.8153C210.118 29.9989 208.645 28.5263 206.829 28.5263ZM185.496 31.8153C185.496 29.9988 186.968 28.5263 188.785 28.5263C190.601 28.5263 192.074 29.9988 192.074 31.8153C192.074 33.6317 190.601 35.1042 188.785 35.1042C186.968 35.1042 185.496 33.6317 185.496 31.8153ZM159.401 28.493C157.585 28.493 156.112 29.9655 156.112 31.7819C156.112 33.5984 157.585 35.0709 159.401 35.0709C161.218 35.0709 162.69 33.5984 162.69 31.7819C162.69 29.9655 161.218 28.493 159.401 28.493ZM75.6619 33.4805H153.002C153.752 36.3134 156.333 38.4014 159.401 38.4014C163.057 38.4014 166.021 35.4378 166.021 31.7819C166.021 28.1261 163.057 25.1624 159.401 25.1624C156.309 25.1624 153.711 27.2833 152.984 30.15H74.9794H74.297L73.8108 30.6289L62.0788 42.186L61.5822 42.6752V43.3723V72.7729H64.9128V44.0694L75.6619 33.4805ZM16.6281 70.5665C16.6281 68.7501 18.1006 67.2776 19.917 67.2776C21.7334 67.2776 23.2059 68.7501 23.2059 70.5665C23.2059 72.3829 21.7334 73.8554 19.917 73.8554C18.1006 73.8554 16.6281 72.3829 16.6281 70.5665ZM159.401 3.33057C157.585 3.33057 156.112 4.80308 156.112 6.61951C156.112 8.43594 157.585 9.90845 159.401 9.90845C161.218 9.90845 162.69 8.43594 162.69 6.61951C162.69 4.80308 161.218 3.33057 159.401 3.33057ZM6.3115 176.987L32.3566 77.8938H64.9129L90.9579 176.987H71.7072L66.3284 155.188H30.9411L25.5622 176.987H6.3115ZM35.3291 137.911H61.9403L49.9087 89.634H47.3608L35.3291 137.911ZM106.253 106.77V176.986H124.089V106.77H106.253ZM143.339 176.987V77.8938H178.019L195.146 164.247H197.694L214.822 77.8938H249.501V176.987H231.383V91.624H228.835L211.849 176.987H180.991L164.006 91.624H161.458V176.987H143.339ZM99.9753 173.481C99.9753 175.417 98.4059 176.987 96.4699 176.987C94.5339 176.987 92.9645 175.417 92.9645 173.481C92.9645 171.545 94.5339 169.976 96.4699 169.976C98.4059 169.976 99.9753 171.545 99.9753 173.481ZM130.592 176.987C132.528 176.987 134.097 175.417 134.097 173.481C134.097 171.545 132.528 169.976 130.592 169.976C128.656 169.976 127.086 171.545 127.086 173.481C127.086 175.417 128.656 176.987 130.592 176.987ZM259.227 173.481C259.227 175.417 257.657 176.987 255.721 176.987C253.785 176.987 252.216 175.417 252.216 173.481C252.216 171.545 253.785 169.976 255.721 169.976C257.657 169.976 259.227 171.545 259.227 173.481Z" fill="currentColor"/>
</mask>
<g mask="url(#mask0_34_10099)">
<circle cx="135.721" cy="134.888" r="212.324" fill="#F9F9F9"/>
<g filter="url(#filter0_f_34_10099)">
<circle cx="66.6114" cy="243.964" r="154.039" fill="#F9F9F9"/>
</g>
<g filter="url(#filter1_f_34_10099)">
<circle cx="14.9877" cy="-24.1466" r="121.566" fill="#F9F9F9"/>
</g>
<g filter="url(#filter2_f_34_10099)">
<circle cx="194.006" cy="17.4855" r="121.566" fill="#F9F9F9"/>
</g>
<g filter="url(#filter3_f_34_10099)">
<circle cx="287.262" cy="261.45" r="121.566" fill="#F9F9F9"/>
</g>
</g>
<defs>
<filter id="filter0_f_34_10099" x="-194.006" y="-16.6528" width="521.234" height="521.234" filterUnits="userSpaceOnUse" color-interpolation-filters="sRGB">
<feFlood flood-opacity="0" result="BackgroundImageFix"/>
<feBlend mode="normal" in="SourceGraphic" in2="BackgroundImageFix" result="shape"/>
<feGaussianBlur stdDeviation="53.2891" result="effect1_foregroundBlur_34_10099"/>
</filter>
<filter id="filter1_f_34_10099" x="-213.156" y="-252.291" width="456.288" height="456.288" filterUnits="userSpaceOnUse" color-interpolation-filters="sRGB">
<feFlood flood-opacity="0" result="BackgroundImageFix"/>
<feBlend mode="normal" in="SourceGraphic" in2="BackgroundImageFix" result="shape"/>
<feGaussianBlur stdDeviation="53.2891" result="effect1_foregroundBlur_34_10099"/>
</filter>
<filter id="filter2_f_34_10099" x="-34.1383" y="-210.659" width="456.288" height="456.288" filterUnits="userSpaceOnUse" color-interpolation-filters="sRGB">
<feFlood flood-opacity="0" result="BackgroundImageFix"/>
<feBlend mode="normal" in="SourceGraphic" in2="BackgroundImageFix" result="shape"/>
<feGaussianBlur stdDeviation="53.2891" result="effect1_foregroundBlur_34_10099"/>
</filter>
<filter id="filter3_f_34_10099" x="59.1178" y="33.3057" width="456.288" height="456.288" filterUnits="userSpaceOnUse" color-interpolation-filters="sRGB">
<feFlood flood-opacity="0" result="BackgroundImageFix"/>
<feBlend mode="normal" in="SourceGraphic" in2="BackgroundImageFix" result="shape"/>
<feGaussianBlur stdDeviation="53.2891" result="effect1_foregroundBlur_34_10099"/>
</filter>
</defs>
</svg>
