<svg width="237" height="251" viewBox="0 0 237 251" fill="none" xmlns="http://www.w3.org/2000/svg">
<path d="M48.2739 47.1525C39.8014 51.5078 39 54.2585 39 79.0146C39 103.771 39.8014 106.521 48.2739 110.877C53.0826 113.398 54.342 113.513 74.7217 113.169C98.5362 112.825 100.025 112.367 104.833 104.115C106.894 100.562 107.123 98.1548 107.123 79.0146C107.123 59.8745 106.894 57.4676 104.833 53.9146C100.025 45.6626 98.5362 45.2041 74.7217 44.8603C54.342 44.5165 53.0826 44.6311 48.2739 47.1525Z" fill="currentColor"/>
<path d="M139.868 47.1525C131.396 51.5078 130.594 54.2585 130.594 79.0146C130.594 103.771 131.396 106.521 139.868 110.877C144.677 113.398 145.936 113.513 166.316 113.169C190.13 112.825 191.619 112.367 196.428 104.115C198.488 100.562 198.717 98.1548 198.717 79.0146C198.717 59.8745 198.488 57.4676 196.428 53.9146C191.619 45.6626 190.13 45.2041 166.316 44.8603C145.936 44.5165 144.677 44.6311 139.868 47.1525Z" fill="currentColor"/>
<path d="M48.2739 138.842C39.8014 143.197 39 145.948 39 170.704C39 195.46 39.8014 198.211 48.2739 202.566C53.0826 205.088 54.342 205.202 74.7217 204.858C98.5362 204.515 100.025 204.056 104.833 195.804C106.894 192.251 107.123 189.844 107.123 170.704C107.123 151.564 106.894 149.157 104.833 145.604C100.025 137.352 98.5362 136.894 74.7217 136.55C54.342 136.206 53.0826 136.321 48.2739 138.842Z" fill="currentColor"/>
<path d="M139.868 138.842C131.396 143.197 130.594 145.948 130.594 170.704C130.594 195.46 131.396 198.211 139.868 202.566C144.677 205.088 145.936 205.202 166.316 204.858C190.13 204.515 191.619 204.056 196.428 195.804C198.488 192.251 198.717 189.844 198.717 170.704C198.717 151.564 198.488 149.157 196.428 145.604C191.619 137.352 190.13 136.894 166.316 136.55C145.936 136.206 144.677 136.321 139.868 138.842Z" fill="currentColor"/>
</svg>
