<svg width="5562" height="782" viewBox="0 0 5562 782" fill="none" xmlns="http://www.w3.org/2000/svg">
<path d="M5210.49 62.2527C5213.08 55.3108 5224.57 55.4113 5227.04 62.395C5235.41 85.9972 5249.97 120.289 5269.21 139.371C5288.44 158.454 5323.02 172.894 5346.81 181.191C5353.85 183.647 5353.96 195.041 5346.96 197.612C5323.48 206.234 5289.47 221.048 5270.29 240.071C5250.88 259.328 5235.81 293.659 5227.17 316.964C5224.61 323.847 5213.36 323.847 5210.8 316.964C5202.16 293.659 5187.09 259.328 5167.68 240.071C5148.27 220.815 5113.65 205.872 5090.16 197.298C5083.22 194.766 5083.22 183.602 5090.16 181.07C5113.65 172.496 5148.27 157.553 5167.68 138.297C5186.86 119.273 5201.8 85.5351 5210.49 62.2527Z" fill="black"/>
<path d="M5477.08 243.612C5478.67 239.684 5484.91 239.684 5486.5 243.612C5491.74 256.539 5500.96 276.254 5512.27 287.478C5523.59 298.702 5543.47 307.848 5556.5 313.039C5560.46 314.616 5560.46 320.81 5556.5 322.388C5543.47 327.579 5523.59 336.725 5512.27 347.948C5500.96 359.172 5491.74 378.888 5486.5 391.815C5484.91 395.743 5478.67 395.743 5477.08 391.815C5471.84 378.888 5462.62 359.172 5451.31 347.948C5439.99 336.725 5420.11 327.579 5407.08 322.388C5403.12 320.81 5403.12 314.616 5407.08 313.039C5420.11 307.848 5439.99 298.702 5451.31 287.478C5462.62 276.254 5471.84 256.539 5477.08 243.612Z" fill="black"/>
<path d="M5417.59 3.44431C5418.02 1.89589 5420.74 1.89589 5421.16 3.44431C5423.66 12.5886 5428.89 27.9578 5437.48 36.4829C5446.73 45.6575 5465.92 52.8923 5475.81 56.1861C5477.29 56.6796 5477.15 59.0701 5475.63 59.4151C5465.7 61.6658 5446.68 66.9603 5437.48 76.0809C5428.92 84.5764 5423.7 101.525 5421.19 111.772C5420.8 113.365 5417.96 113.365 5417.57 111.772C5415.06 101.525 5409.84 84.5764 5401.27 76.0809C5392.08 66.9603 5373.06 61.6658 5363.13 59.4151C5361.6 59.0701 5361.47 56.6796 5362.95 56.1862C5372.84 52.8923 5392.03 45.6575 5401.27 36.4829C5409.87 27.9578 5415.09 12.5886 5417.59 3.44431Z" fill="black"/>
<path d="M9.375 451.675C-3.125 439.175 -3.125 418.875 9.375 406.375C21.875 393.875 42.175 393.875 54.675 406.375L214.675 566.375C227.175 578.875 227.175 599.175 214.675 611.675L54.675 771.675C42.175 784.175 21.875 784.175 9.375 771.675C-3.125 759.175 -3.125 738.875 9.375 726.375L146.675 589.075L9.375 451.675ZM223.975 717.075H479.975C497.675 717.075 511.975 731.375 511.975 749.075C511.975 766.775 497.675 781.075 479.975 781.075H223.975C206.275 781.075 191.975 766.775 191.975 749.075C191.975 731.375 206.275 717.075 223.975 717.075Z" fill="black"/>
<path d="M740.66 740V372.99H924.7C951.807 372.99 974.098 377.805 991.575 387.435C1009.41 397.065 1022.78 410.618 1031.7 428.095C1040.62 445.572 1045.08 466.437 1045.08 490.69C1045.08 514.587 1040.44 535.452 1031.17 553.285C1021.89 571.118 1007.98 585.028 989.435 595.015C971.245 604.645 948.418 609.46 920.955 609.46H810.21V740H740.66ZM810.21 550.075H918.815C936.648 550.075 950.38 544.903 960.01 534.56C969.997 523.86 974.99 509.237 974.99 490.69C974.99 478.207 972.85 467.685 968.57 459.125C964.29 450.565 958.048 443.967 949.845 439.33C941.642 434.693 931.298 432.375 918.815 432.375H810.21V550.075ZM1099.07 740V372.99H1292.2C1319.31 372.99 1341.78 377.627 1359.61 386.9C1377.45 396.173 1390.82 409.37 1399.74 426.49C1408.65 443.61 1413.11 463.762 1413.11 486.945C1413.11 510.842 1407.76 532.063 1397.06 550.61C1386.36 568.8 1370.67 582.532 1349.98 591.805L1425.95 740H1349.98L1282.57 603.575H1168.62V740H1099.07ZM1168.62 545.26H1286.85C1304.69 545.26 1318.42 540.088 1328.05 529.745C1337.68 519.402 1342.49 505.135 1342.49 486.945C1342.49 475.175 1340.35 465.367 1336.07 457.52C1331.79 449.317 1325.55 443.075 1317.35 438.795C1309.14 434.515 1298.98 432.375 1286.85 432.375H1168.62V545.26ZM1648.47 746.42C1610.3 746.42 1577.31 739.643 1549.49 726.09C1521.67 712.18 1500.27 691.137 1485.29 662.96C1470.67 634.783 1463.36 599.295 1463.36 556.495C1463.36 513.338 1470.67 477.85 1485.29 450.03C1500.27 421.853 1521.67 400.988 1549.49 387.435C1577.31 373.525 1610.3 366.57 1648.47 366.57C1686.99 366.57 1719.98 373.525 1747.44 387.435C1775.26 400.988 1796.48 421.853 1811.11 450.03C1826.09 477.85 1833.58 513.338 1833.58 556.495C1833.58 599.295 1826.09 634.783 1811.11 662.96C1796.48 691.137 1775.26 712.18 1747.44 726.09C1719.98 739.643 1686.99 746.42 1648.47 746.42ZM1648.47 687.57C1667.01 687.57 1683.24 684.895 1697.15 679.545C1711.42 674.195 1723.37 666.348 1733 656.005C1742.63 645.305 1749.94 632.287 1754.93 616.95C1759.93 601.257 1762.42 583.245 1762.42 562.915V551.145C1762.42 530.458 1759.93 512.268 1754.93 496.575C1749.94 480.882 1742.63 467.863 1733 457.52C1723.37 446.82 1711.42 438.795 1697.15 433.445C1683.24 428.095 1667.01 425.42 1648.47 425.42C1629.92 425.42 1613.51 428.095 1599.25 433.445C1585.34 438.795 1573.57 446.82 1563.94 457.52C1554.31 467.863 1547 480.882 1542 496.575C1537.37 512.268 1535.05 530.458 1535.05 551.145V562.915C1535.05 583.245 1537.37 601.257 1542 616.95C1547 632.287 1554.31 645.305 1563.94 656.005C1573.57 666.348 1585.34 674.195 1599.25 679.545C1613.51 684.895 1629.92 687.57 1648.47 687.57ZM1898.43 740V372.99H2008.11L2065.89 577.36C2068.03 584.493 2070.17 592.518 2072.31 601.435C2074.45 610.352 2076.41 618.912 2078.19 627.115C2080.33 635.318 2081.94 642.452 2083.01 648.515H2087.29C2088 643.165 2089.07 636.567 2090.5 628.72C2091.93 620.873 2093.53 612.492 2095.31 603.575C2097.45 594.302 2099.77 585.385 2102.27 576.825L2160.05 372.99H2268.65V740H2199.1V554.355C2199.1 537.948 2199.28 521.542 2199.64 505.135C2200 488.728 2200.35 474.64 2200.71 462.87C2201.42 451.1 2201.78 444.145 2201.78 442.005H2197.5C2196.79 445.215 2195 452.17 2192.15 462.87C2189.3 473.57 2186.26 485.162 2183.05 497.645C2179.84 510.128 2176.99 520.828 2174.49 529.745L2114.04 740H2049.84L1989.38 530.28C1987.24 522.79 1984.75 513.873 1981.89 503.53C1979.4 492.83 1976.72 481.952 1973.87 470.895C1971.37 459.838 1969.05 450.208 1966.91 442.005H1962.63C1962.99 451.635 1963.35 463.227 1963.7 476.78C1964.06 489.977 1964.42 503.53 1964.77 517.44C1965.13 530.993 1965.31 543.298 1965.31 554.355V740H1898.43ZM2349.84 740V372.99H2533.88C2560.99 372.99 2583.28 377.805 2600.75 387.435C2618.59 397.065 2631.96 410.618 2640.88 428.095C2649.8 445.572 2654.25 466.437 2654.25 490.69C2654.25 514.587 2649.62 535.452 2640.34 553.285C2631.07 571.118 2617.16 585.028 2598.61 595.015C2580.42 604.645 2557.6 609.46 2530.13 609.46H2419.39V740H2349.84ZM2419.39 550.075H2527.99C2545.83 550.075 2559.56 544.903 2569.19 534.56C2579.18 523.86 2584.17 509.237 2584.17 490.69C2584.17 478.207 2582.03 467.685 2577.75 459.125C2573.47 450.565 2567.23 443.967 2559.02 439.33C2550.82 434.693 2540.48 432.375 2527.99 432.375H2419.39V550.075ZM2787.68 740V432.91H2670.51V372.99H2974.93V432.91H2857.23V740H2787.68ZM3273.1 746.42C3252.77 746.42 3233.34 744.28 3214.79 740C3196.24 735.363 3179.84 728.408 3165.57 719.135C3151.3 709.505 3140.07 697.735 3131.86 683.825C3123.66 669.558 3119.56 652.795 3119.56 633.535C3119.56 631.395 3119.56 629.255 3119.56 627.115C3119.92 624.975 3120.09 623.37 3120.09 622.3H3190.18C3190.18 623.013 3190 624.44 3189.64 626.58C3189.64 628.363 3189.64 629.968 3189.64 631.395C3189.64 643.165 3193.03 653.33 3199.81 661.89C3206.59 670.093 3216.39 676.513 3229.23 681.15C3242.07 685.43 3257.23 687.57 3274.71 687.57C3286.48 687.57 3296.82 686.857 3305.74 685.43C3315.01 684.003 3322.86 682.042 3329.28 679.545C3336.06 676.692 3341.58 673.482 3345.86 669.915C3350.14 665.992 3353.18 661.712 3354.96 657.075C3357.1 652.438 3358.17 647.445 3358.17 642.095C3358.17 631.752 3354.96 623.192 3348.54 616.415C3342.12 609.638 3333.38 603.932 3322.32 599.295C3311.62 594.658 3299.32 590.557 3285.41 586.99C3271.86 583.067 3257.77 579.143 3243.14 575.22C3228.88 571.297 3214.79 566.66 3200.88 561.31C3187.33 555.603 3175.02 548.827 3163.96 540.98C3153.26 533.133 3144.7 523.325 3138.28 511.555C3131.86 499.428 3128.65 484.983 3128.65 468.22C3128.65 451.1 3132.22 436.12 3139.35 423.28C3146.84 410.44 3157.19 399.918 3170.38 391.715C3183.94 383.155 3199.63 376.913 3217.46 372.99C3235.3 368.71 3254.74 366.57 3275.78 366.57C3295.4 366.57 3313.76 368.71 3330.88 372.99C3348.36 376.913 3363.7 383.333 3376.89 392.25C3390.09 400.81 3400.43 411.867 3407.92 425.42C3415.41 438.617 3419.16 454.488 3419.16 473.035V479.455H3350.14V474.105C3350.14 463.762 3346.93 455.023 3340.51 447.89C3334.45 440.757 3325.71 435.228 3314.3 431.305C3303.24 427.382 3290.22 425.42 3275.24 425.42C3259.19 425.42 3245.46 427.025 3234.05 430.235C3222.64 433.088 3213.9 437.547 3207.83 443.61C3201.77 449.317 3198.74 456.45 3198.74 465.01C3198.74 473.927 3201.95 481.417 3208.37 487.48C3214.79 493.543 3223.35 498.715 3234.05 502.995C3245.11 507.275 3257.41 511.198 3270.96 514.765C3284.87 518.332 3298.96 522.255 3313.23 526.535C3327.85 530.458 3341.94 535.095 3355.49 540.445C3369.4 545.795 3381.71 552.572 3392.41 560.775C3403.47 568.622 3412.2 578.43 3418.62 590.2C3425.04 601.97 3428.25 616.058 3428.25 632.465C3428.25 659.928 3421.48 682.042 3407.92 698.805C3394.73 715.568 3376.36 727.695 3352.82 735.185C3329.64 742.675 3303.06 746.42 3273.1 746.42ZM3582.86 740V432.91H3465.7V372.99H3770.11V432.91H3652.41V740H3582.86ZM3976.7 746.42C3944.6 746.42 3916.96 741.248 3893.77 730.905C3870.59 720.562 3852.76 704.868 3840.27 683.825C3828.15 662.425 3822.08 635.853 3822.08 604.11V372.99H3891.63V601.97C3891.63 630.147 3898.95 651.547 3913.57 666.17C3928.55 680.437 3949.59 687.57 3976.7 687.57C4003.81 687.57 4024.85 680.437 4039.83 666.17C4055.17 651.547 4062.83 630.147 4062.83 601.97V372.99H4132.38V604.11C4132.38 635.853 4126.14 662.425 4113.66 683.825C4101.18 704.868 4083.34 720.562 4060.16 730.905C4036.98 741.248 4009.16 746.42 3976.7 746.42ZM4211.37 740V372.99H4358.49C4395.59 372.99 4427.33 379.588 4453.72 392.785C4480.12 405.982 4500.45 426.133 4514.71 453.24C4528.98 479.99 4536.11 514.408 4536.11 556.495C4536.11 598.225 4528.98 632.643 4514.71 659.75C4500.45 686.857 4480.12 707.008 4453.72 720.205C4427.33 733.402 4395.59 740 4358.49 740H4211.37ZM4280.92 680.615H4358.49C4375.61 680.615 4390.77 678.118 4403.97 673.125C4417.16 668.132 4428.22 660.82 4437.14 651.19C4446.05 641.203 4452.83 628.898 4457.47 614.275C4462.1 599.295 4464.42 581.997 4464.42 562.38V551.145C4464.42 531.172 4462.1 513.873 4457.47 499.25C4452.83 484.27 4446.05 471.965 4437.14 462.335C4428.22 452.348 4417.16 444.858 4403.97 439.865C4390.77 434.872 4375.61 432.375 4358.49 432.375H4280.92V680.615ZM4600.6 740V372.99H4670.15V740H4600.6ZM4920.12 746.42C4881.95 746.42 4848.96 739.643 4821.14 726.09C4793.32 712.18 4771.92 691.137 4756.94 662.96C4742.32 634.783 4735.01 599.295 4735.01 556.495C4735.01 513.338 4742.32 477.85 4756.94 450.03C4771.92 421.853 4793.32 400.988 4821.14 387.435C4848.96 373.525 4881.95 366.57 4920.12 366.57C4958.64 366.57 4991.63 373.525 5019.09 387.435C5046.91 400.988 5068.13 421.853 5082.76 450.03C5097.74 477.85 5105.23 513.338 5105.23 556.495C5105.23 599.295 5097.74 634.783 5082.76 662.96C5068.13 691.137 5046.91 712.18 5019.09 726.09C4991.63 739.643 4958.64 746.42 4920.12 746.42ZM4920.12 687.57C4938.66 687.57 4954.89 684.895 4968.8 679.545C4983.07 674.195 4995.02 666.348 5004.65 656.005C5014.28 645.305 5021.59 632.287 5026.58 616.95C5031.58 601.257 5034.07 583.245 5034.07 562.915V551.145C5034.07 530.458 5031.58 512.268 5026.58 496.575C5021.59 480.882 5014.28 467.863 5004.65 457.52C4995.02 446.82 4983.07 438.795 4968.8 433.445C4954.89 428.095 4938.66 425.42 4920.12 425.42C4901.57 425.42 4885.16 428.095 4870.9 433.445C4856.99 438.795 4845.22 446.82 4835.59 457.52C4825.96 467.863 4818.65 480.882 4813.65 496.575C4809.02 512.268 4806.7 530.458 4806.7 551.145V562.915C4806.7 583.245 4809.02 601.257 4813.65 616.95C4818.65 632.287 4825.96 645.305 4835.59 656.005C4845.22 666.348 4856.99 674.195 4870.9 679.545C4885.16 684.895 4901.57 687.57 4920.12 687.57Z" fill="black"/>
</svg>
