<svg width="481" height="397" viewBox="0 0 481 397" fill="none" xmlns="http://www.w3.org/2000/svg">
<path d="M129.489 62.2527C132.081 55.3108 143.569 55.4113 146.044 62.395C154.409 85.9972 168.968 120.289 188.207 139.371C207.445 158.454 242.019 172.894 265.814 181.191C272.855 183.647 272.957 195.041 265.958 197.612C242.484 206.234 208.47 221.048 189.29 240.071C169.876 259.328 154.811 293.659 146.167 316.964C143.614 323.847 132.358 323.847 129.805 316.964C121.161 293.659 106.095 259.328 86.6813 240.071C67.2671 220.815 32.6539 205.872 9.15834 197.298C2.21909 194.766 2.21908 183.602 9.15832 181.07C32.6539 172.496 67.2671 157.553 86.6813 138.297C105.861 119.273 120.796 85.5351 129.489 62.2527Z" fill="black"/>
<path d="M396.078 243.612C397.668 239.684 403.913 239.684 405.503 243.612C410.737 256.539 419.957 276.254 431.273 287.478C442.589 298.702 462.467 307.848 475.499 313.039C479.46 314.616 479.46 320.81 475.499 322.388C462.467 327.579 442.589 336.725 431.273 347.948C419.957 359.172 410.737 378.888 405.503 391.815C403.913 395.743 397.668 395.743 396.078 391.815C390.844 378.888 381.624 359.172 370.308 347.948C358.992 336.725 339.115 327.579 326.082 322.388C322.121 320.81 322.121 314.616 326.082 313.039C339.115 307.848 358.992 298.702 370.308 287.478C381.624 276.254 390.844 256.539 396.078 243.612Z" fill="black"/>
<path d="M336.593 3.44431C337.016 1.89589 339.741 1.89589 340.164 3.44431C342.663 12.5886 347.888 27.9578 356.483 36.4829C365.733 45.6575 384.922 52.8923 394.807 56.1861C396.288 56.6796 396.154 59.0701 394.631 59.4151C384.697 61.6658 365.678 66.9603 356.483 76.0809C347.918 84.5764 342.7 101.525 340.191 111.772C339.8 113.365 336.957 113.365 336.567 111.772C334.058 101.525 328.84 84.5764 320.275 76.0809C311.08 66.9603 292.061 61.6658 282.126 59.4151C280.604 59.0701 280.47 56.6796 281.951 56.1862C291.836 52.8923 311.025 45.6575 320.275 36.4829C328.87 27.9578 334.095 12.5886 336.593 3.44431Z" fill="black"/>
</svg>
