<svg width="5112" height="535" viewBox="0 0 5112 535" fill="none" xmlns="http://www.w3.org/2000/svg">
<path d="M2572.49 135.253C2575.08 128.311 2586.57 128.411 2589.04 135.395C2597.41 158.997 2611.97 193.289 2631.21 212.371C2650.45 231.454 2685.02 245.894 2708.81 254.191C2715.86 256.647 2715.96 268.041 2708.96 270.612C2685.48 279.234 2651.47 294.048 2632.29 313.071C2612.88 332.328 2597.81 366.659 2589.17 389.964C2586.61 396.847 2575.36 396.847 2572.8 389.964C2564.16 366.659 2549.1 332.328 2529.68 313.071C2510.27 293.815 2475.65 278.872 2452.16 270.298C2445.22 267.766 2445.22 256.602 2452.16 254.07C2475.65 245.496 2510.27 230.553 2529.68 211.297C2548.86 192.273 2563.8 158.535 2572.49 135.253Z" fill="black"/>
<path d="M2839.08 316.612C2840.67 312.684 2846.91 312.684 2848.5 316.612C2853.74 329.539 2862.96 349.254 2874.27 360.478C2885.59 371.702 2905.47 380.848 2918.5 386.039C2922.46 387.616 2922.46 393.81 2918.5 395.388C2905.47 400.579 2885.59 409.725 2874.27 420.948C2862.96 432.172 2853.74 451.888 2848.5 464.815C2846.91 468.743 2840.67 468.743 2839.08 464.815C2833.84 451.888 2824.62 432.172 2813.31 420.948C2801.99 409.725 2782.12 400.579 2769.08 395.388C2765.12 393.81 2765.12 387.616 2769.08 386.039C2782.12 380.848 2801.99 371.702 2813.31 360.478C2824.62 349.254 2833.84 329.539 2839.08 316.612Z" fill="black"/>
<path d="M2779.59 76.4443C2780.02 74.8959 2782.74 74.8959 2783.16 76.4443C2785.66 85.5886 2790.89 100.958 2799.48 109.483C2808.73 118.657 2827.92 125.892 2837.81 129.186C2839.29 129.68 2839.15 132.07 2837.63 132.415C2827.7 134.666 2808.68 139.96 2799.48 149.081C2790.92 157.576 2785.7 174.525 2783.19 184.772C2782.8 186.365 2779.96 186.365 2779.57 184.772C2777.06 174.525 2771.84 157.576 2763.28 149.081C2754.08 139.96 2735.06 134.666 2725.13 132.415C2723.6 132.07 2723.47 129.68 2724.95 129.186C2734.84 125.892 2754.03 118.658 2763.28 109.483C2771.87 100.958 2777.1 85.5886 2779.59 76.4443Z" fill="black"/>
<path d="M40.66 446V78.99H224.7C251.807 78.99 274.098 83.805 291.575 93.435C309.408 103.065 322.783 116.618 331.7 134.095C340.617 151.572 345.075 172.437 345.075 196.69C345.075 220.587 340.438 241.452 331.165 259.285C321.892 277.118 307.982 291.028 289.435 301.015C271.245 310.645 248.418 315.46 220.955 315.46H110.21V446H40.66ZM110.21 256.075H218.815C236.648 256.075 250.38 250.903 260.01 240.56C269.997 229.86 274.99 215.237 274.99 196.69C274.99 184.207 272.85 173.685 268.57 165.125C264.29 156.565 258.048 149.967 249.845 145.33C241.642 140.693 231.298 138.375 218.815 138.375H110.21V256.075ZM399.068 446V78.99H592.203C619.31 78.99 641.78 83.6266 659.613 92.9C677.447 102.173 690.822 115.37 699.738 132.49C708.655 149.61 713.113 169.762 713.113 192.945C713.113 216.842 707.763 238.063 697.063 256.61C686.363 274.8 670.67 288.532 649.983 297.805L725.953 446H649.983L582.573 309.575H468.618V446H399.068ZM468.618 251.26H586.853C604.687 251.26 618.418 246.088 628.048 235.745C637.678 225.402 642.493 211.135 642.493 192.945C642.493 181.175 640.353 171.367 636.073 163.52C631.793 155.317 625.552 149.075 617.348 144.795C609.145 140.515 598.98 138.375 586.853 138.375H468.618V251.26ZM948.467 452.42C910.304 452.42 877.312 445.643 849.492 432.09C821.672 418.18 800.272 397.137 785.292 368.96C770.669 340.783 763.357 305.295 763.357 262.495C763.357 219.338 770.669 183.85 785.292 156.03C800.272 127.853 821.672 106.988 849.492 93.435C877.312 79.525 910.304 72.57 948.467 72.57C986.987 72.57 1019.98 79.525 1047.44 93.435C1075.26 106.988 1096.48 127.853 1111.11 156.03C1126.09 183.85 1133.58 219.338 1133.58 262.495C1133.58 305.295 1126.09 340.783 1111.11 368.96C1096.48 397.137 1075.26 418.18 1047.44 432.09C1019.98 445.643 986.987 452.42 948.467 452.42ZM948.467 393.57C967.014 393.57 983.242 390.895 997.152 385.545C1011.42 380.195 1023.37 372.348 1033 362.005C1042.63 351.305 1049.94 338.287 1054.93 322.95C1059.93 307.257 1062.42 289.245 1062.42 268.915V257.145C1062.42 236.458 1059.93 218.268 1054.93 202.575C1049.94 186.882 1042.63 173.863 1033 163.52C1023.37 152.82 1011.42 144.795 997.152 139.445C983.242 134.095 967.014 131.42 948.467 131.42C929.921 131.42 913.514 134.095 899.247 139.445C885.337 144.795 873.567 152.82 863.937 163.52C854.307 173.863 846.996 186.882 842.002 202.575C837.366 218.268 835.047 236.458 835.047 257.145V268.915C835.047 289.245 837.366 307.257 842.002 322.95C846.996 338.287 854.307 351.305 863.937 362.005C873.567 372.348 885.337 380.195 899.247 385.545C913.514 390.895 929.921 393.57 948.467 393.57ZM1198.43 446V78.99H1308.11L1365.89 283.36C1368.03 290.493 1370.17 298.518 1372.31 307.435C1374.45 316.352 1376.41 324.912 1378.19 333.115C1380.33 341.318 1381.94 348.452 1383.01 354.515H1387.29C1388 349.165 1389.07 342.567 1390.5 334.72C1391.93 326.873 1393.53 318.492 1395.31 309.575C1397.45 300.302 1399.77 291.385 1402.27 282.825L1460.05 78.99H1568.65V446H1499.1V260.355C1499.1 243.948 1499.28 227.542 1499.64 211.135C1500 194.728 1500.35 180.64 1500.71 168.87C1501.42 157.1 1501.78 150.145 1501.78 148.005H1497.5C1496.79 151.215 1495 158.17 1492.15 168.87C1489.3 179.57 1486.26 191.162 1483.05 203.645C1479.84 216.128 1476.99 226.828 1474.49 235.745L1414.04 446H1349.84L1289.38 236.28C1287.24 228.79 1284.75 219.873 1281.89 209.53C1279.4 198.83 1276.72 187.952 1273.87 176.895C1271.37 165.838 1269.05 156.208 1266.91 148.005H1262.63C1262.99 157.635 1263.35 169.227 1263.7 182.78C1264.06 195.977 1264.42 209.53 1264.77 223.44C1265.13 236.993 1265.31 249.298 1265.31 260.355V446H1198.43ZM1649.84 446V78.99H1833.88C1860.99 78.99 1883.28 83.805 1900.75 93.435C1918.59 103.065 1931.96 116.618 1940.88 134.095C1949.8 151.572 1954.25 172.437 1954.25 196.69C1954.25 220.587 1949.62 241.452 1940.34 259.285C1931.07 277.118 1917.16 291.028 1898.61 301.015C1880.42 310.645 1857.6 315.46 1830.13 315.46H1719.39V446H1649.84ZM1719.39 256.075H1827.99C1845.83 256.075 1859.56 250.903 1869.19 240.56C1879.18 229.86 1884.17 215.237 1884.17 196.69C1884.17 184.207 1882.03 173.685 1877.75 165.125C1873.47 156.565 1867.23 149.967 1859.02 145.33C1850.82 140.693 1840.48 138.375 1827.99 138.375H1719.39V256.075ZM2087.68 446V138.91H1970.51V78.99H2274.93V138.91H2157.23V446H2087.68Z" fill="black"/>
<path d="M3255.62 452.42C3235.29 452.42 3215.85 450.28 3197.31 446C3178.76 441.363 3162.35 434.408 3148.09 425.135C3133.82 415.505 3122.58 403.735 3114.38 389.825C3106.18 375.558 3102.08 358.795 3102.08 339.535C3102.08 337.395 3102.08 335.255 3102.08 333.115C3102.43 330.975 3102.61 329.37 3102.61 328.3H3172.7C3172.7 329.013 3172.52 330.44 3172.16 332.58C3172.16 334.363 3172.16 335.968 3172.16 337.395C3172.16 349.165 3175.55 359.33 3182.33 367.89C3189.1 376.093 3198.91 382.513 3211.75 387.15C3224.59 391.43 3239.75 393.57 3257.23 393.57C3269 393.57 3279.34 392.857 3288.26 391.43C3297.53 390.003 3305.38 388.042 3311.8 385.545C3318.57 382.692 3324.1 379.482 3328.38 375.915C3332.66 371.992 3335.69 367.712 3337.48 363.075C3339.62 358.438 3340.69 353.445 3340.69 348.095C3340.69 337.752 3337.48 329.192 3331.06 322.415C3324.64 315.638 3315.9 309.932 3304.84 305.295C3294.14 300.658 3281.84 296.557 3267.93 292.99C3254.37 289.067 3240.28 285.143 3225.66 281.22C3211.39 277.297 3197.31 272.66 3183.4 267.31C3169.84 261.603 3157.54 254.827 3146.48 246.98C3135.78 239.133 3127.22 229.325 3120.8 217.555C3114.38 205.428 3111.17 190.983 3111.17 174.22C3111.17 157.1 3114.74 142.12 3121.87 129.28C3129.36 116.44 3139.7 105.918 3152.9 97.715C3166.45 89.155 3182.15 82.9133 3199.98 78.99C3217.81 74.71 3237.25 72.57 3258.3 72.57C3277.91 72.57 3296.28 74.71 3313.4 78.99C3330.88 82.9133 3346.21 89.3333 3359.41 98.25C3372.61 106.81 3382.95 117.867 3390.44 131.42C3397.93 144.617 3401.68 160.488 3401.68 179.035V185.455H3332.66V180.105C3332.66 169.762 3329.45 161.023 3323.03 153.89C3316.97 146.757 3308.23 141.228 3296.82 137.305C3285.76 133.382 3272.74 131.42 3257.76 131.42C3241.71 131.42 3227.98 133.025 3216.57 136.235C3205.15 139.088 3196.41 143.547 3190.35 149.61C3184.29 155.317 3181.26 162.45 3181.26 171.01C3181.26 179.927 3184.47 187.417 3190.89 193.48C3197.31 199.543 3205.87 204.715 3216.57 208.995C3227.62 213.275 3239.93 217.198 3253.48 220.765C3267.39 224.332 3281.48 228.255 3295.75 232.535C3310.37 236.458 3324.46 241.095 3338.01 246.445C3351.92 251.795 3364.23 258.572 3374.93 266.775C3385.98 274.622 3394.72 284.43 3401.14 296.2C3407.56 307.97 3410.77 322.058 3410.77 338.465C3410.77 365.928 3403.99 388.042 3390.44 404.805C3377.24 421.568 3358.88 433.695 3335.34 441.185C3312.15 448.675 3285.58 452.42 3255.62 452.42ZM3565.38 446V138.91H3448.22V78.99H3752.63V138.91H3634.93V446H3565.38ZM3959.22 452.42C3927.12 452.42 3899.47 447.248 3876.29 436.905C3853.11 426.562 3835.27 410.868 3822.79 389.825C3810.66 368.425 3804.6 341.853 3804.6 310.11V78.99H3874.15V307.97C3874.15 336.147 3881.46 357.547 3896.09 372.17C3911.07 386.437 3932.11 393.57 3959.22 393.57C3986.32 393.57 4007.37 386.437 4022.35 372.17C4037.68 357.547 4045.35 336.147 4045.35 307.97V78.99H4114.9V310.11C4114.9 341.853 4108.66 368.425 4096.18 389.825C4083.69 410.868 4065.86 426.562 4042.68 436.905C4019.49 447.248 3991.67 452.42 3959.22 452.42ZM4193.88 446V78.99H4341.01C4378.1 78.99 4409.85 85.5883 4436.24 98.785C4462.63 111.982 4482.96 132.133 4497.23 159.24C4511.5 185.99 4518.63 220.408 4518.63 262.495C4518.63 304.225 4511.5 338.643 4497.23 365.75C4482.96 392.857 4462.63 413.008 4436.24 426.205C4409.85 439.402 4378.1 446 4341.01 446H4193.88ZM4263.43 386.615H4341.01C4358.13 386.615 4373.29 384.118 4386.48 379.125C4399.68 374.132 4410.74 366.82 4419.65 357.19C4428.57 347.203 4435.35 334.898 4439.98 320.275C4444.62 305.295 4446.94 287.997 4446.94 268.38V257.145C4446.94 237.172 4444.62 219.873 4439.98 205.25C4435.35 190.27 4428.57 177.965 4419.65 168.335C4410.74 158.348 4399.68 150.858 4386.48 145.865C4373.29 140.872 4358.13 138.375 4341.01 138.375H4263.43V386.615ZM4583.12 446V78.99H4652.67V446H4583.12ZM4902.63 452.42C4864.47 452.42 4831.48 445.643 4803.66 432.09C4775.84 418.18 4754.44 397.137 4739.46 368.96C4724.84 340.783 4717.52 305.295 4717.52 262.495C4717.52 219.338 4724.84 183.85 4739.46 156.03C4754.44 127.853 4775.84 106.988 4803.66 93.435C4831.48 79.525 4864.47 72.57 4902.63 72.57C4941.15 72.57 4974.15 79.525 5001.61 93.435C5029.43 106.988 5050.65 127.853 5065.27 156.03C5080.25 183.85 5087.74 219.338 5087.74 262.495C5087.74 305.295 5080.25 340.783 5065.27 368.96C5050.65 397.137 5029.43 418.18 5001.61 432.09C4974.15 445.643 4941.15 452.42 4902.63 452.42ZM4902.63 393.57C4921.18 393.57 4937.41 390.895 4951.32 385.545C4965.59 380.195 4977.53 372.348 4987.16 362.005C4996.79 351.305 5004.11 338.287 5009.1 322.95C5014.09 307.257 5016.59 289.245 5016.59 268.915V257.145C5016.59 236.458 5014.09 218.268 5009.1 202.575C5004.11 186.882 4996.79 173.863 4987.16 163.52C4977.53 152.82 4965.59 144.795 4951.32 139.445C4937.41 134.095 4921.18 131.42 4902.63 131.42C4884.09 131.42 4867.68 134.095 4853.41 139.445C4839.5 144.795 4827.73 152.82 4818.1 163.52C4808.47 173.863 4801.16 186.882 4796.17 202.575C4791.53 218.268 4789.21 236.458 4789.21 257.145V268.915C4789.21 289.245 4791.53 307.257 4796.17 322.95C4801.16 338.287 4808.47 351.305 4818.1 362.005C4827.73 372.348 4839.5 380.195 4853.41 385.545C4867.68 390.895 4884.09 393.57 4902.63 393.57Z" fill="black"/>
</svg>
